<svg xmlns="http://www.w3.org/2000/svg" xmlns:xlink="http://www.w3.org/1999/xlink" preserveAspectRatio="xMidYMid" width="42" height="74" viewBox="0 0 42 74">
  <defs>
    <style>

      .cls-2 {
        fill: #61c0bd;
      }
    </style>
  </defs>
  <path d="M40.941,41.181 C40.941,41.181 8.887,73.415 8.887,73.415 C6.848,75.466 3.543,75.466 1.505,73.415 C-0.533,71.366 -0.533,68.041 1.505,65.992 C1.505,65.992 29.867,37.470 29.867,37.470 C29.867,37.470 1.506,8.949 1.506,8.949 C-0.532,6.899 -0.532,3.575 1.506,1.525 C3.544,-0.526 6.849,-0.526 8.888,1.525 C8.888,1.525 40.942,33.759 40.942,33.759 C41.961,34.784 42.470,36.127 42.470,37.470 C42.470,38.814 41.959,40.157 40.941,41.181 Z" id="path-1" class="cls-2" fill-rule="evenodd"/>
</svg>
