<svg xmlns="http://www.w3.org/2000/svg" xmlns:xlink="http://www.w3.org/1999/xlink" preserveAspectRatio="xMidYMid" width="42" height="74" viewBox="0 0 42 74">
  <defs>
    <style>

      .cls-2 {
        fill: #61c0bd;
      }
    </style>
  </defs>
  <path d="M1.511,33.771 C1.511,33.771 33.211,1.523 33.211,1.523 C35.227,-0.529 38.496,-0.529 40.512,1.523 C42.527,3.573 42.527,6.899 40.512,8.949 C40.512,8.949 12.463,37.483 12.463,37.483 C12.463,37.483 40.511,66.016 40.511,66.016 C42.526,68.067 42.526,71.393 40.511,73.443 C38.495,75.495 35.226,75.495 33.210,73.443 C33.210,73.443 1.510,41.196 1.510,41.196 C0.502,40.170 -0.001,38.827 -0.001,37.483 C-0.001,36.139 0.504,34.795 1.511,33.771 Z" id="path-1" class="cls-2" fill-rule="evenodd"/>
</svg>
